<svg width="150" height="150" viewBox="0 0 150 150" fill="none" xmlns="http://www.w3.org/2000/svg">
<g id="circle-group">
<g id="circle-animation">
<rect width="150" height="150" fill="white"/>
<circle id="great-circle" cx="75" cy="75" r="44" fill="white" stroke="black" stroke-width="2"/>
<g id="mid-circle">
<mask id="path-2-inside-1_8_10" fill="white">
<path d="M40 75C40 80.5228 35.5228 85 30 85C24.4772 85 20 80.5228 20 75C20 69.4772 24.4772 65 30 65C35.5228 65 40 69.4772 40 75Z"/>
</mask>
<path d="M40 75C40 80.5228 35.5228 85 30 85C24.4772 85 20 80.5228 20 75C20 69.4772 24.4772 65 30 65C35.5228 65 40 69.4772 40 75Z" fill="#FFFEFE"/>
<path d="M38 75C38 79.4183 34.4183 83 30 83V87C36.6274 87 42 81.6274 42 75H38ZM30 83C25.5817 83 22 79.4183 22 75H18C18 81.6274 23.3726 87 30 87V83ZM22 75C22 70.5817 25.5817 67 30 67V63C23.3726 63 18 68.3726 18 75H22ZM30 67C34.4183 67 38 70.5817 38 75H42C42 68.3726 36.6274 63 30 63V67Z" fill="black" mask="url(#path-2-inside-1_8_10)"/>
</g>
<g id="tiny-circle">
<mask id="path-4-inside-2_8_10" fill="white">
<path d="M111 42.5C111 46.6421 107.642 50 103.5 50C99.3579 50 96 46.6421 96 42.5C96 38.3579 99.3579 35 103.5 35C107.642 35 111 38.3579 111 42.5Z"/>
</mask>
<path d="M111 42.5C111 46.6421 107.642 50 103.5 50C99.3579 50 96 46.6421 96 42.5C96 38.3579 99.3579 35 103.5 35C107.642 35 111 38.3579 111 42.5Z" fill="white"/>
<path d="M109 42.5C109 45.5376 106.538 48 103.5 48V52C108.747 52 113 47.7467 113 42.5H109ZM103.5 48C100.462 48 98 45.5376 98 42.5H94C94 47.7467 98.2533 52 103.5 52V48ZM98 42.5C98 39.4624 100.462 37 103.5 37V33C98.2533 33 94 37.2533 94 42.5H98ZM103.5 37C106.538 37 109 39.4624 109 42.5H113C113 37.2533 108.747 33 103.5 33V37Z" fill="black" mask="url(#path-4-inside-2_8_10)"/>
</g>
</g>
</g>
</svg>
